<?xml version="1.0" encoding="utf-8"?>
<!-- Generator: Adobe Illustrator 21.1.0, SVG Export Plug-In . SVG Version: 6.00 Build 0)  -->
<svg version="1.1" id="Capa_1" xmlns="http://www.w3.org/2000/svg" xmlns:xlink="http://www.w3.org/1999/xlink" x="0px" y="0px"
	 viewBox="0 0 55 38" style="enable-background:new 0 0 55 38;" xml:space="preserve">
<style type="text/css">
	.st0{fill:#FFFFFF;}
	.st1{fill:#7FB1C8;}
	.st2{fill:#E59677;}
</style>
<path class="st0" d="M54.6,17.9V4.5c0-2.4-2-4.4-4.4-4.4H4.4C2,0.1,0,2.1,0,4.5v11.4l6.9,2l7.9-2l8.7,2l9.3-2l7,2l7.1-2L54.6,17.9z"/>
<path class="st0" d="M0,16.9v16.8c0,2.4,2,4.4,4.4,4.4h45.8c2.4,0,4.4-2,4.4-4.4V18.9l-7.7-2l-7.1,2l-7-2l-9.4,2l-8.6-2l-8,2L0,16.9z"/>
	<path class="st1" d="M9.4,34.6c-0.4-0.4-0.9-0.4-1.3,0l-3.5,3.5h2.6l2.2-2.2C9.8,35.5,9.8,35,9.4,34.6z"/>
	<path class="st2" d="M15.4,34.6c-0.4-0.4-0.9-0.4-1.3,0l-3.5,3.5h2.6l2.2-2.2C15.7,35.5,15.7,35,15.4,34.6z"/>
	<path class="st1" d="M21.4,34.6c-0.4-0.4-0.9-0.4-1.3,0l-3.5,3.5h2.6l2.2-2.2C21.8,35.5,21.8,35,21.4,34.6z"/>
	<path class="st2" d="M27.4,34.6c-0.4-0.4-0.9-0.4-1.3,0l-3.5,3.5h2.6l2.2-2.2C27.8,35.5,27.8,35,27.4,34.6z"/>
	<path class="st1" d="M33.5,34.6c-0.4-0.4-0.9-0.4-1.3,0l-3.5,3.5h2.6l2.2-2.2C33.8,35.5,33.8,35,33.5,34.6z"/>
	<path class="st2" d="M39.5,34.6c-0.4-0.4-0.9-0.4-1.3,0l-3.5,3.5h2.6l2.2-2.2C39.9,35.5,39.9,35,39.5,34.6z"/>
	<path class="st1" d="M45.4,34.6c-0.4-0.4-0.9-0.4-1.3,0l-3.5,3.5h2.6l2.2-2.2C45.8,35.5,45.8,35,45.4,34.6z"/>
	<path class="st2" d="M51.5,34.6c-0.4-0.4-0.9-0.4-1.3,0l-3.5,3.5h2.6l2.2-2.2C51.9,35.5,51.9,35,51.5,34.6z"/>
	<path class="st1" d="M45.1,3.5c0.4,0.4,0.9,0.4,1.3,0L49.9,0h-2.6l-2.2,2.2C44.7,2.5,44.7,3.1,45.1,3.5z"/>
	<path class="st2" d="M39.1,3.5c0.4,0.4,0.9,0.4,1.3,0L43.8,0h-2.6L39,2.2C38.7,2.5,38.7,3.1,39.1,3.5z"/>
	<path class="st1" d="M33.1,3.5c0.4,0.4,0.9,0.4,1.3,0L37.9,0h-2.6l-2.2,2.2C32.7,2.5,32.7,3.1,33.1,3.5z"/>
	<path class="st2" d="M27,3.5c0.4,0.4,0.9,0.4,1.3,0L31.9,0h-2.6L27,2.2C26.7,2.5,26.7,3.1,27,3.5z"/>
	<path class="st1" d="M21,3.5c0.4,0.4,0.9,0.4,1.3,0L25.8,0h-2.6L21,2.2C20.6,2.5,20.6,3.1,21,3.5z"/>
	<path class="st2" d="M15,3.5c0.4,0.4,0.9,0.4,1.3,0L19.8,0h-2.6L15,2.2C14.6,2.5,14.6,3.1,15,3.5z"/>
	<path class="st1" d="M9,3.5c0.4,0.4,0.9,0.4,1.3,0L13.7,0h-2.6L9,2.2C8.7,2.5,8.7,3.1,9,3.5z"/>
	<path class="st2" d="M3,3.5c0.4,0.4,0.9,0.4,1.3,0L7.8,0H5.2L3,2.2C2.6,2.5,2.6,3.1,3,3.5z"/>
	<path class="st1" d="M12.6,25c-0.2,0.1-0.6,0.2-1.2,0.2c-1.2,0-2.2-0.8-2.2-2.3c0-1.4,0.9-2.3,2.3-2.3c0.5,0,0.9,0.2,1.1,0.2
		l-0.2,0.5c-0.2-0.1-0.5-0.2-0.9-0.2c-1.1-0.1-1.7,0.6-1.7,1.8c0,1.1,0.6,1.8,1.7,1.8c0.4,0,0.7-0.1,0.9-0.2L12.6,25z"/>
	<path class="st1" d="M15.1,25.1l-0.1-0.4l0,0c-0.2,0.2-0.5,0.5-1,0.5c-0.6,0-1-0.5-1-0.9c0-0.8,0.7-1.2,1.9-1.2V23
		c0-0.2-0.1-0.8-0.7-0.8c-0.3,0-0.6,0.1-0.9,0.2l-0.2-0.4c0.2-0.2,0.6-0.3,1.1-0.3c1,0,1.2,0.7,1.2,1.3v1.2c0,0.3,0,0.5,0.1,0.8
		L15.1,25.1L15.1,25.1z M15,23.5c-0.6,0-1.3,0.1-1.3,0.7c0,0.4,0.2,0.5,0.5,0.5c0.4,0,0.7-0.2,0.8-0.5c0-0.1,0-0.2,0-0.2V23.5z"/>
	<path class="st1" d="M16.5,22.9c0-0.4,0-0.7,0-1h0.5v0.6l0,0c0.2-0.5,0.5-0.7,0.9-0.7c0.1,0,0.1,0,0.2,0v0.5c-0.1,0-0.2,0-0.2,0
		c-0.4,0-0.7,0.3-0.8,0.8c0,0.1,0,0.2,0,0.2v1.7h-0.5V22.9z"/>
	<path class="st1" d="M21.4,20.4v3.9c0,0.3,0,0.6,0,0.9h-0.5v-0.5l0,0c-0.2,0.4-0.5,0.6-1.1,0.6c-0.8,0-1.4-0.6-1.4-1.6
		c0-1.1,0.6-1.7,1.4-1.7c0.5,0,0.9,0.2,0.9,0.5l0,0v-1.9C20.7,20.4,21.4,20.4,21.4,20.4z M20.8,23.2c0-0.1,0-0.2,0-0.2
		c-0.1-0.4-0.4-0.7-0.9-0.7c-0.6,0-0.9,0.5-0.9,1.2c0,0.6,0.3,1.2,0.9,1.2c0.4,0,0.8-0.2,0.9-0.7c0-0.1,0-0.2,0-0.2V23.2z"/>
	<path class="st1" d="M26.1,23h-1.7v1.6h1.9v0.5h-2.5v-4.4h2.4v0.5h-1.9v1.4h1.7V23z"/>
	<path class="st1" d="M27.3,21.9l0.5,0.7c0.2,0.2,0.2,0.3,0.3,0.5l0,0c0.1-0.2,0.2-0.4,0.3-0.5l0.5-0.7h0.6l-1.1,1.6l1.1,1.6h-0.7
		l-0.5-0.7c-0.2-0.2-0.2-0.4-0.3-0.5l0,0c-0.1,0.2-0.2,0.4-0.3,0.5l-0.5,0.7h-0.6l1.2-1.6l-1.1-1.6C26.7,21.9,27.3,21.9,27.3,21.9z"
		/>
	<path class="st1" d="M30.1,22.9c0-0.4,0-0.8,0-1h0.5v0.5l0,0c0.2-0.4,0.6-0.6,1.2-0.6c0.8,0,1.3,0.6,1.3,1.6c0,1.2-0.7,1.7-1.5,1.7
		c-0.4,0-0.8-0.2-1-0.5l0,0v1.7h-0.5C30.1,26.4,30.1,22.9,30.1,22.9z M30.7,23.8c0,0.1,0,0.2,0,0.2c0.1,0.4,0.5,0.7,0.9,0.7
		c0.6,0,1-0.5,1-1.2c0-0.6-0.3-1.2-0.9-1.2c-0.4,0-0.8,0.3-0.9,0.7c0,0.1-0.1,0.2-0.1,0.2C30.7,23.2,30.7,23.8,30.7,23.8z"/>
	<path class="st1" d="M34.6,21c0,0.2-0.2,0.4-0.4,0.4s-0.4-0.2-0.4-0.4c0-0.2,0.2-0.4,0.4-0.4C34.4,20.7,34.6,20.8,34.6,21z
		 M33.9,25.1v-3.2h0.6v3.2H33.9z"/>
	<path class="st1" d="M35.5,22.9c0-0.4,0-0.7,0-1H36v0.6l0,0c0.2-0.5,0.5-0.7,0.9-0.7c0.1,0,0.1,0,0.2,0v0.5c-0.1,0-0.2,0-0.2,0
		c-0.4,0-0.7,0.3-0.8,0.8c0,0.1,0,0.2,0,0.2v1.7h-0.5V22.9z"/>
	<path class="st1" d="M37.9,23.6c0,0.8,0.5,1.1,1.1,1.1c0.4,0,0.7-0.1,0.9-0.2l0.1,0.4c-0.2,0.1-0.5,0.2-1.1,0.2
		c-1,0-1.6-0.6-1.6-1.6c0-1,0.5-1.7,1.5-1.7c1,0,1.3,0.9,1.3,1.5c0,0.2,0,0.2,0,0.2L37.9,23.6L37.9,23.6z M39.6,23.2
		c0-0.4-0.2-0.9-0.8-0.9c-0.6,0-0.9,0.5-0.9,0.9H39.6z"/>
	<path class="st1" d="M43.7,20.4v3.9c0,0.3,0,0.6,0,0.9h-0.5v-0.5l0,0C43,25,42.6,25.3,42,25.3c-0.8,0-1.4-0.6-1.4-1.6
		c0-1.1,0.6-1.7,1.4-1.7c0.5,0,0.9,0.2,0.9,0.5l0,0v-1.9C43,20.4,43.7,20.4,43.7,20.4z M43.1,23.2c0-0.1,0-0.2,0-0.2
		c-0.1-0.4-0.4-0.7-0.9-0.7c-0.6,0-0.9,0.5-0.9,1.2c0,0.6,0.3,1.2,0.9,1.2c0.4,0,0.8-0.2,0.9-0.7c0-0.1,0-0.2,0-0.2V23.2z"/>
	<path class="st1" d="M44.5,24.8c0-0.2,0.2-0.4,0.4-0.4s0.4,0.2,0.4,0.4s-0.2,0.4-0.4,0.4C44.7,25.2,44.5,25,44.5,24.8z M44.7,23.9
		l-0.1-3.2h0.6l-0.1,3.2H44.7z"/>
	<path class="st1" d="M11.5,30.8c-0.2,0.1-0.5,0.2-0.8,0.2c-0.9,0-1.5-0.5-1.5-1.6c0-0.9,0.6-1.6,1.6-1.6c0.4,0,0.6,0.1,0.7,0.2
		l-0.1,0.3c-0.2-0.1-0.4-0.2-0.6-0.2c-0.7,0-1.2,0.5-1.2,1.2c0,0.7,0.4,1.2,1.2,1.2c0.2,0,0.5-0.1,0.6-0.2L11.5,30.8z"/>
	<path class="st1" d="M12,27.8h0.4V31H12V27.8z"/>
	<path class="st1" d="M13.5,28.2c0,0.2-0.1,0.2-0.2,0.2S13,28.3,13,28.2c0-0.2,0.1-0.2,0.2-0.2C13.4,27.9,13.5,28,13.5,28.2z
		 M13.1,31v-2.2h0.4V31H13.1z"/>
	<path class="st1" d="M15.7,30.9C15.6,31,15.4,31,15.1,31c-0.6,0-1.1-0.5-1.1-1.1c0-0.7,0.5-1.2,1.2-1.2c0.2,0,0.5,0.1,0.5,0.1
		l-0.1,0.3c-0.1-0.1-0.2-0.1-0.5-0.1c-0.5,0-0.8,0.4-0.8,0.8c0,0.5,0.3,0.8,0.8,0.8c0.2,0,0.4-0.1,0.5-0.1L15.7,30.9z"/>
	<path class="st1" d="M16.5,29.8L16.5,29.8c0.1-0.1,0.2-0.2,0.2-0.2l0.6-0.8h0.5L17,29.6l0.9,1.2h-0.5l-0.8-1l-0.2,0.2v0.8h-0.3
		v-3.2h0.4V29.8z"/>
	<path class="st1" d="M19.7,28.2v0.6h0.5v0.3h-0.5v1.2c0,0.2,0.1,0.4,0.3,0.4c0.1,0,0.2,0,0.2,0V31C20.1,31,20,31,19.9,31
		c-0.2,0-0.3-0.1-0.4-0.2c-0.2-0.2-0.2-0.4-0.2-0.6v-1.2H19v-0.3h0.3v-0.5L19.7,28.2z"/>
	<path class="st1" d="M22.5,29.9c0,0.8-0.5,1.2-1.1,1.2c-0.6,0-1-0.5-1-1.1c0-0.7,0.5-1.2,1.1-1.2C22.2,28.7,22.5,29.2,22.5,29.9z
		 M20.8,29.9c0,0.5,0.2,0.9,0.6,0.9s0.6-0.4,0.6-0.9c0-0.4-0.2-0.9-0.6-0.9C21.1,29,20.8,29.5,20.8,29.9z"/>
	<path class="st1" d="M26.1,30.8C26,30.9,25.7,31,25.4,31c-0.9,0-1.5-0.5-1.5-1.6c0-0.9,0.6-1.6,1.6-1.6c0.4,0,0.6,0.1,0.7,0.2
		l-0.1,0.3c-0.2-0.1-0.4-0.2-0.6-0.2c-0.7,0-1.2,0.5-1.2,1.2c0,0.7,0.4,1.2,1.2,1.2c0.2,0,0.5-0.1,0.6-0.2L26.1,30.8z"/>
	<path class="st1" d="M26.6,29.5c0-0.2,0-0.5,0-0.7h0.3v0.4l0,0c0.1-0.3,0.3-0.5,0.6-0.5c0.1,0,0.1,0,0.1,0v0.4c-0.1,0-0.1,0-0.2,0
		c-0.3,0-0.5,0.2-0.5,0.5c0,0.1,0,0.1,0,0.2v1.2h-0.4L26.6,29.5L26.6,29.5z"/>
	<path class="st1" d="M28.2,29.9c0,0.5,0.3,0.8,0.8,0.8c0.3,0,0.5-0.1,0.6-0.1l0.1,0.3c-0.2,0.1-0.4,0.2-0.7,0.2
		c-0.7,0-1.1-0.5-1.1-1.1c0-0.6,0.4-1.2,1-1.2c0.7,0,0.9,0.6,0.9,1c0,0.1,0,0.2,0,0.2L28.2,29.9L28.2,29.9z M29.4,29.6
		c0-0.2-0.1-0.6-0.5-0.6c-0.4,0-0.5,0.4-0.6,0.6H29.4z"/>
	<path class="st1" d="M31.4,31v-0.2l0,0C31.3,30.9,31,31,30.8,31c-0.5,0-0.6-0.3-0.6-0.6c0-0.5,0.5-0.8,1.3-0.8v-0.1
		c0-0.2-0.1-0.5-0.5-0.5c-0.2,0-0.4,0.1-0.5,0.2L30.4,29c0.2-0.1,0.5-0.2,0.7-0.2c0.6,0,0.9,0.5,0.9,0.9v0.8c0,0.2,0,0.4,0,0.5
		L31.4,31L31.4,31z M31.4,29.8c-0.5,0-0.9,0.1-0.9,0.5c0,0.2,0.2,0.4,0.4,0.4c0.3,0,0.5-0.2,0.5-0.4c0-0.1,0-0.1,0-0.2V29.8z"/>
	<path class="st1" d="M32.8,28.2v0.6h0.5v0.3h-0.5v1.2c0,0.2,0.1,0.4,0.3,0.4c0.1,0,0.2,0,0.2,0V31c-0.1,0-0.2,0.1-0.3,0.1
		c-0.2,0-0.3-0.1-0.4-0.2c-0.2-0.2-0.2-0.4-0.2-0.6v-1.2h-0.3v-0.3h0.3v-0.5L32.8,28.2z"/>
	<path class="st1" d="M34.1,29.9c0,0.5,0.3,0.8,0.8,0.8c0.3,0,0.5-0.1,0.6-0.1l0.1,0.3c-0.2,0.1-0.4,0.2-0.7,0.2
		c-0.7,0-1.1-0.5-1.1-1.1c0-0.6,0.4-1.2,1-1.2c0.7,0,0.9,0.6,0.9,1c0,0.1,0,0.2,0,0.2L34.1,29.9L34.1,29.9z M35.3,29.6
		c0-0.2-0.1-0.6-0.5-0.6c-0.4,0-0.5,0.4-0.6,0.6H35.3z"/>
	<path class="st1" d="M37,31v-3h0.4l0.9,1.6c0.2,0.4,0.4,0.7,0.5,1l0,0c0-0.4-0.1-0.8-0.1-1.2V28h0.4v3h-0.4l-0.9-1.6
		c-0.2-0.3-0.4-0.7-0.5-1l0,0c0,0.4,0,0.8,0,1.2V31L37,31L37,31z"/>
	<path class="st1" d="M40.2,29.9c0,0.5,0.3,0.8,0.8,0.8c0.3,0,0.5-0.1,0.6-0.1l0.1,0.3c-0.2,0.1-0.4,0.2-0.7,0.2
		c-0.7,0-1.1-0.5-1.1-1.1c0-0.6,0.4-1.2,1-1.2c0.7,0,0.9,0.6,0.9,1c0,0.1,0,0.2,0,0.2L40.2,29.9L40.2,29.9z M41.3,29.6
		c0-0.2-0.1-0.6-0.5-0.6c-0.4,0-0.5,0.4-0.6,0.6H41.3z"/>
	<path class="st1" d="M42.4,28.8l0.3,1.1c0.1,0.2,0.2,0.5,0.2,0.7l0,0c0.1-0.2,0.2-0.5,0.2-0.7l0.4-1.1h0.3l0.3,1.1
		c0.1,0.2,0.2,0.5,0.2,0.7l0,0c0-0.2,0.1-0.5,0.2-0.7l0.3-1.1H45L44.3,31h-0.4l-0.3-1c-0.1-0.2-0.2-0.5-0.2-0.7l0,0
		c-0.1,0.2-0.2,0.5-0.2,0.7l-0.3,1h-0.2L42,28.8H42.4z"/>
			<path class="st2" d="M31.4,13l-3.6-6.8c-0.1-0.2-0.3-0.3-0.5-0.3h0c-0.2,0-0.4,0.1-0.5,0.3l-3.6,6.8c-0.1,0.2-0.1,0.4,0,0.5
				c0.1,0.2,0.3,0.3,0.4,0.3h7.3c0.2,0,0.4-0.1,0.4-0.3C31.5,13.3,31.5,13.1,31.4,13z M27.3,12.7c-0.3,0-0.5-0.2-0.5-0.5
				c0-0.3,0.2-0.5,0.5-0.5c0.3,0,0.5,0.2,0.5,0.5C27.8,12.4,27.6,12.7,27.3,12.7z M27.8,10.6c0,0.3-0.2,0.5-0.5,0.5
				c-0.3,0-0.5-0.2-0.5-0.5V8.5C26.8,8.2,27,8,27.3,8c0.3,0,0.5,0.2,0.5,0.5V10.6z"/>
</svg>
