<?xml version="1.0" encoding="utf-8"?>
<!-- Generator: Adobe Illustrator 21.1.0, SVG Export Plug-In . SVG Version: 6.00 Build 0)  -->
<svg version="1.1" id="Layer_1" xmlns="http://www.w3.org/2000/svg" xmlns:xlink="http://www.w3.org/1999/xlink" x="0px" y="0px"
	 viewBox="0 0 512 512" style="enable-background:new 0 0 512 512;" xml:space="preserve">
<style type="text/css">
	.st0{fill:#CEE8FA;}
	.st1{fill:#7FB1C8;}
</style>
<path class="st0" d="M458.3,211.5h26.5c7.2,0,13-5.8,13-13V76.9c0-7.2-5.8-13-13-13H295c-7.2,0-13,5.8-13,13v121.5
	c0,7.2,5.8,13,13,13h26.5l-2.8,47.1c-0.4,6.9,7.9,10.8,12.9,6.1l57-53.2h38.1H458.3z"/>
<g>
	<path class="st1" d="M326.5,280.8c-6,0-11.9-2.5-16-6.9c-4.1-4.4-6.2-10.1-5.9-16.2l1.9-32.1H295c-15,0-27.2-12.2-27.2-27.2V76.9
		c0-15,12.2-27.2,27.2-27.2h189.8c15,0,27.2,12.2,27.2,27.2v121.5c0,15-12.2,27.2-27.2,27.2h-90.5L341.3,275
		C337.3,278.7,332,280.8,326.5,280.8z M296.1,197.3h25.4c3.9,0,7.6,1.6,10.3,4.4c2.7,2.8,4.1,6.6,3.8,10.5l-1.8,31l45.3-42.2
		c2.6-2.4,6.1-3.8,9.6-3.8h95V78H296.1V197.3z"/>
	<path class="st1" d="M149.3,482.2C67,482.2,0,415.3,0,332.9s67-149.3,149.3-149.3s149.3,67,149.3,149.3c0,23.7-5.4,46.3-16,67.3
		c-3.5,7-12,9.8-19,6.2c-7-3.5-9.8-12-6.2-19c8.6-17,12.9-35.3,12.9-54.5c0-66.7-54.3-121-121-121s-121,54.3-121,121
		s54.3,121,121,121c27.1,0,52.7-8.8,74.1-25.3c6.2-4.8,15.1-3.7,19.8,2.5c4.8,6.2,3.7,15.1-2.5,19.8
		C214.4,471.4,182.8,482.2,149.3,482.2z"/>
	<path class="st1" d="M204.6,283c-12.9,0-23.5,10.5-23.5,23.5s10.5,23.5,23.5,23.5s23.5-10.5,23.5-23.5S217.5,283,204.6,283z"/>
	<path class="st1" d="M94,283c-12.9,0-23.5,10.5-23.5,23.5S81.1,330,94,330s23.5-10.5,23.5-23.5S107,283,94,283z"/>
	<path class="st1" d="M149.3,424.7c-32.9,0-61.9-19.8-73.9-50.5c-2.8-7.3,0.8-15.5,8-18.3c7.3-2.8,15.5,0.8,18.3,8
		c7.7,19.7,26.3,32.5,47.5,32.5s39.8-12.7,47.5-32.5c2.8-7.3,11-10.9,18.3-8c7.3,2.8,10.9,11,8,18.3
		C211.2,404.9,182.2,424.7,149.3,424.7z"/>
</g>
</svg>
