<?xml version="1.0" encoding="utf-8"?>
<!-- Generator: Adobe Illustrator 21.1.0, SVG Export Plug-In . SVG Version: 6.00 Build 0)  -->
<svg version="1.1" id="Capa_1" xmlns="http://www.w3.org/2000/svg" xmlns:xlink="http://www.w3.org/1999/xlink" x="0px" y="0px"
	 viewBox="0 0 54.6 38.1" style="enable-background:new 0 0 54.6 38.1;" xml:space="preserve">
<style type="text/css">
	.st0{fill:#E9E9E9;}
	.st1{fill:#979797;}
</style>
<g>
	<rect x="-0.1" y="0.1" class="st0" width="54.8" height="37.9"/>
	<g>
		<path class="st1" d="M9,13c-0.4,0.2-1.2,0.4-2.1,0.4c-2.3,0-4-1.4-4-4.1C2.8,6.7,4.5,5,7.1,5c1,0,1.6,0.2,1.9,0.4L8.7,6.2
			c-0.4-0.2-1-0.3-1.6-0.3c-1.9,0-3.2,1.2-3.2,3.3c0,2,1.1,3.3,3.1,3.3c0.6,0,1.3-0.1,1.7-0.3L9,13z"/>
		<path class="st1" d="M10.2,4.7h1.1v8.5h-1.1V4.7z"/>
		<path class="st1" d="M14.2,5.8c0,0.4-0.3,0.6-0.7,0.6c-0.4,0-0.6-0.3-0.6-0.6c0-0.4,0.3-0.7,0.7-0.7C14,5.2,14.2,5.4,14.2,5.8z
			 M13.1,13.2V7.4h1.1v5.8H13.1z"/>
		<path class="st1" d="M20,13c-0.3,0.1-0.9,0.3-1.7,0.3c-1.8,0-2.9-1.2-2.9-3c0-1.8,1.2-3.1,3.1-3.1c0.6,0,1.2,0.2,1.5,0.3l-0.2,0.8
			c-0.3-0.1-0.6-0.3-1.2-0.3c-1.3,0-2.1,1-2.1,2.2c0,1.3,0.9,2.2,2,2.2c0.6,0,1-0.2,1.3-0.3L20,13z"/>
		<path class="st1" d="M22.3,10.1L22.3,10.1c0.2-0.2,0.4-0.5,0.5-0.7l1.7-2h1.3l-2.2,2.4l2.6,3.4h-1.3l-2-2.8l-0.5,0.6v2.2h-1V4.7h1
			V10.1z"/>
		<path class="st1" d="M30.5,5.2v3.4h3.9V5.2h1.1v8.1h-1.1V9.5h-3.9v3.8h-1V5.2H30.5z"/>
		<path class="st1" d="M37.8,10.5c0,1.4,0.9,2,2,2c0.8,0,1.2-0.1,1.6-0.3l0.2,0.8c-0.4,0.2-1,0.4-1.9,0.4c-1.8,0-2.9-1.2-2.9-2.9
			s1-3.1,2.7-3.1C41.4,7.3,42,9,42,10c0,0.2,0,0.4,0,0.5H37.8z M40.9,9.8c0-0.7-0.3-1.7-1.5-1.7c-1.1,0-1.5,1-1.6,1.7H40.9z"/>
		<path class="st1" d="M43.3,9.3c0-0.7,0-1.3,0-1.8h0.9l0,1.1h0c0.3-0.8,0.9-1.3,1.6-1.3c0.1,0,0.2,0,0.3,0v1c-0.1,0-0.2,0-0.4,0
			c-0.7,0-1.3,0.6-1.4,1.4c0,0.1,0,0.3,0,0.5v3.1h-1V9.3z"/>
		<path class="st1" d="M47.7,10.5c0,1.4,0.9,2,2,2c0.8,0,1.2-0.1,1.6-0.3l0.2,0.8c-0.4,0.2-1,0.4-1.9,0.4c-1.8,0-2.9-1.2-2.9-2.9
			s1-3.1,2.7-3.1c1.9,0,2.4,1.7,2.4,2.7c0,0.2,0,0.4,0,0.5H47.7z M50.7,9.8c0-0.7-0.3-1.7-1.5-1.7c-1.1,0-1.5,1-1.6,1.7H50.7z"/>
	</g>
</g>
</svg>
