<?xml version="1.0" encoding="utf-8"?>
<!-- Generator: Adobe Illustrator 21.1.0, SVG Export Plug-In . SVG Version: 6.00 Build 0)  -->
<svg version="1.1" id="Layer_1" xmlns="http://www.w3.org/2000/svg" xmlns:xlink="http://www.w3.org/1999/xlink" x="0px" y="0px"
	 viewBox="0 0 512 512" style="enable-background:new 0 0 512 512;" xml:space="preserve">
<style type="text/css">
	.st0{fill:#CEE8FA;}
	.st1{fill:#7FB1C8;}
</style>
<path class="st0" d="M156.1,175.3L92.3,224c-2.8,2.1-6.7,2.1-9.5,0L19,175.3c-5.9-4.5-2.7-14,4.7-14h127.6
	C158.8,161.3,162,170.8,156.1,175.3z"/>
<g>
	<path class="st1" d="M504.1,150.9c-5.5-5.4-13-8.2-20.7-7.6c-24.7,1.9-104,10.8-133.9,48.4c-20.8-36.8-48.5-56.5-82.3-58.4
		c-1-0.1-2.1-0.1-3.1-0.1c-32.4,0-67,28.4-89,50.5v-14.9c0-12.5-10.2-22.7-22.7-22.7H22.7C10.2,146.1,0,156.3,0,168.8v92.8
		c0,12.5,10.2,22.7,22.7,22.7h129.7c12.5,0,22.7-10.2,22.7-22.7v-11.9c3.8,7.8,7.1,16.1,10.5,24.6c7.1,17.8,14.4,36.2,27.3,52
		c35.3,43.4,85.3,52.5,121.1,52.5c25.4,0,52.7-4.9,77-13.7c7.2-2.6,10.9-10.5,8.3-17.7c-2.6-7.2-10.5-10.9-17.7-8.3
		c-21.3,7.8-45.3,12-67.5,12c-29.8,0-71.2-7.3-99.7-42.3c-10.2-12.6-16.7-29-23-44.8c-6.6-16.5-13.9-34.9-26.2-50.7
		c24.8-27.3,56.8-52.4,79-52.4c0.5,0,1,0,1.5,0c25.4,1.4,46.6,18.4,63,50.5c3.8,7.4,11.3,12.2,19.7,12.4c8.3,0.2,16.1-4.1,20.2-11.3
		c13.7-23.5,67.7-37.7,115.7-41.5c-3.1,44.1-13.8,77.4-32.6,101.8c-6.1,7.9-6.3,18.7-0.7,26.9c2,2.9,4.7,5.3,8,7.1c0,0,0,0,0.1,0
		c-0.6,0.4-1.2,0.9-1.9,1.3c-3.8,2.7-7.8,5.4-11.9,8.1c-6.4,4.2-8.2,12.7-4,19.1c4.2,6.4,12.7,8.2,19.1,4c4.4-2.8,8.7-5.7,12.8-8.6
		c8-5.6,15.5-11.4,22.3-17.1c5.4-4.5,7.4-11.9,5-18.5c-2.4-6.6-8.7-11-15.8-11c0,0,0,0,0,0c-2.8,0-5.1-0.1-6.8-0.3
		c19.8-28.4,30.9-65.1,34.1-112.1C512.5,163.9,509.6,156.3,504.1,150.9z M133.5,175.2l-46,35.1l-46-35.1H133.5z M27.6,256.7v-57.4
		L74.5,235c3.7,2.9,8.4,4.4,13.1,4.4c4.7,0,9.4-1.6,13.1-4.4l46.8-35.7v57.4H27.6z"/>
	<circle class="st1" cx="240.6" cy="215.2" r="15.7"/>
</g>
</svg>
