<?xml version="1.0" encoding="utf-8"?>
<!-- Generator: Adobe Illustrator 21.1.0, SVG Export Plug-In . SVG Version: 6.00 Build 0)  -->
<svg version="1.1" id="Layer_1" xmlns="http://www.w3.org/2000/svg" xmlns:xlink="http://www.w3.org/1999/xlink" x="0px" y="0px"
	 viewBox="0 0 512 512" style="enable-background:new 0 0 512 512;" xml:space="preserve">
<style type="text/css">
	.st0{fill:#7FB1C8;}
	.st1{fill:#CEE8FA;}
</style>
<path class="st0" d="M412.1,329.1c12.8-25.2,19.3-53.4,18.8-81.7c-0.6-46.3-19.1-89.7-52.1-122.2C346,92.8,302.4,74.9,256,74.9
	c-96.5,0-175.1,78.5-175.1,175.1c0,46.6,18,90.4,50.6,123.5c32.8,32.9,76.5,51.2,123.1,51.6h1.4c27.1,0,53.1-6,77.3-17.9
	c6.4-3.2,9.1-11,5.9-17.5c-2.2-4.5-6.7-7.3-11.7-7.3c-2,0-3.9,0.4-5.7,1.3C301,393.9,278.9,399,255.8,399l-1.1,0
	C173.3,398.4,107,331.5,107,250c0-82.2,66.9-149,149-149c81,0,147.8,65.8,148.9,146.7c0.4,25.7-5.8,51.1-18.1,73.5
	c-1.6,3-2.1,6.4-1.2,9.7l11.5,43l-26-7c-1.1-0.3-2.2-0.4-3.4-0.4c-5.9,0-11.1,4-12.6,9.7c-0.9,3.4-0.4,6.9,1.3,9.9
	c1.7,3,4.6,5.2,7.9,6.1l39.5,10.6c1.5,0.4,3.1,0.6,4.7,0.6c4.7,0,9.4-1.9,12.7-5.2c4.5-4.5,6.3-11.2,4.6-17.3L412.1,329.1z"/>
<path class="st1" d="M293,182c-22.1,0-32,12.4-35.9,19.7c-0.5,0.9-1.8,0.9-2.3,0C250.9,194.4,241,182,219,182
	c-25.1,0-47.3,17.2-47.3,48.5c0,12.7,2.6,23.5,9.8,35.7c14.6,24.7,62.8,56.8,72.7,63.1c1.1,0.7,2.5,0.7,3.6,0
	c9.9-6.3,58.1-38.2,72.9-63.1c7.2-12.1,9.8-23,9.8-35.7C340.3,199.2,318.2,182,293,182z"/>
<path class="st0" d="M255.9,355L255.9,355c-3.4,0-6.8-0.9-9.8-2.9c-7-4.5-68.7-44.4-88-77.1c-9.2-15.4-13.2-30.3-13.2-48.2
	c0-45.9,34.4-69.9,68.5-69.9c20.3,0,33.8,7.6,42.4,15.6c8.6-8,22.1-15.6,42.6-15.6c34.1,0,68.5,24,68.5,69.9
	c0,18-4.1,32.8-13.1,48.2c-19.5,33-81.2,72.7-88.2,77.1C262.7,354.1,259.3,355,255.9,355z M213.4,185.4c-18.5,0-40,10.9-40,41.4
	c0,12.8,2.6,22.6,9.2,33.7c11.9,20.3,50.4,48.9,73.2,64c22.8-15.1,61.4-43.6,73.4-64c6.5-11,9.2-20.9,9.2-33.7
	c0-30.6-21.6-41.4-40.2-41.4c-17,0-25,8.1-28.7,15c-2.8,5.2-8,8.3-13.8,8.3c-5.9,0-11.1-3.1-13.9-8.3
	C238.5,193.6,230.5,185.4,213.4,185.4z"/>
</svg>
