<?xml version="1.0" encoding="utf-8"?>
<!-- Generator: Adobe Illustrator 21.1.0, SVG Export Plug-In . SVG Version: 6.00 Build 0)  -->
<svg version="1.1" id="Capa_1" xmlns="http://www.w3.org/2000/svg" xmlns:xlink="http://www.w3.org/1999/xlink" x="0px" y="0px"
	 viewBox="0 0 414.8 414.8" style="enable-background:new 0 0 414.8 414.8;" xml:space="preserve">
<style type="text/css">
	.st0{fill:none;}
	.st1{fill:#CEE8FA;}
	.st2{fill:#7FB1C8;}
</style>
<g>
	<path class="st0" d="M124.2,166.8v139.7h51.7v-82.9c0-4.3,3.5-7.7,7.7-7.7h47.6c4.3,0,7.7,3.5,7.7,7.7v82.9h51.7V166.8l-83.2-56.9
		L124.2,166.8z"/>
	<rect x="191.3" y="231.4" class="st1" width="32.1" height="75.2"/>
	<polygon class="st1" points="268.4,132.9 290.6,148.1 290.6,111.1 268.4,111.1 	"/>
	<path class="st2" d="M337.6,180.3L306,158.7v-55.3c0-4.3-3.5-7.7-7.7-7.7h-37.7c-4.3,0-7.7,3.5-7.7,7.7v19c0,0-40.6-27.8-41.1-28.2
		c-2.6-1.8-6.1-1.9-8.8,0L77.2,180.3c-3.5,2.4-4.4,7.2-2,10.7c1.5,2.2,3.9,3.4,6.4,3.4c1.5,0,3-0.4,4.4-1.4l22.9-15.7v136.8
		c0,4.3,3.5,7.7,7.7,7.7h181.8c4.3,0,7.7-3.5,7.7-7.7V177.4l22.9,15.7c1.3,0.9,2.9,1.4,4.4,1.4c2.5,0,4.9-1.2,6.4-3.4
		C342.1,187.5,341.2,182.7,337.6,180.3z M220.5,298.6h-26.2v-61.4h26.2V298.6z M283,299.6h-47v-75.4c0-3.9-3.1-7-7-7h-43.2
		c-3.9,0-7,3.1-7,7v75.4h-47v-127l75.6-51.7l75.6,51.7L283,299.6L283,299.6z M288,143.8l-17-11.7v-16.8h17V143.8z"/>
</g>
</svg>
