<?xml version="1.0" encoding="utf-8"?>
<!-- Generator: Adobe Illustrator 21.1.0, SVG Export Plug-In . SVG Version: 6.00 Build 0)  -->
<svg version="1.1" id="Layer_1" xmlns="http://www.w3.org/2000/svg" xmlns:xlink="http://www.w3.org/1999/xlink" x="0px" y="0px"
	 viewBox="0 0 512 512" style="enable-background:new 0 0 512 512;" xml:space="preserve">
<style type="text/css">
	.st0{fill:#7FB1C8;}
	.st1{fill:#FFFFFF;}
</style>
<path class="st0" d="M437,61.1c-51.8-31.3-113.9-25.4-171.1,7.3C213.1,29.3,151.5,15.7,94.8,41.1C0.5,83.1-10.8,202.9,46.9,315.8
	c58.2,113.4,163.3,179.9,259.6,136.9c1-0.5,1.5-1,2.4-1.5c49.4-19.6,97.3-59.6,134.9-113.4C517.1,233.2,523.5,113.9,437,61.1z"/>
<g>
	<path class="st1" d="M386.1,229l-31.6-21.6v-55.3c0-4.3-3.5-7.7-7.7-7.7h-37.7c-4.3,0-7.7,3.5-7.7,7.7v19c0,0-40.6-27.8-41.1-28.2
		c-2.6-1.8-6.1-1.9-8.8,0L125.7,229c-3.5,2.4-4.4,7.2-2,10.7c1.5,2.2,3.9,3.4,6.4,3.4c1.5,0,3-0.4,4.4-1.4l22.9-15.7v136.8
		c0,4.3,3.5,7.7,7.7,7.7h181.8c4.3,0,7.7-3.5,7.7-7.7V226.1l22.9,15.7c1.3,0.9,2.9,1.4,4.4,1.4c2.5,0,4.9-1.2,6.4-3.4
		C390.6,236.2,389.7,231.4,386.1,229z M269,347.3h-26.2v-61.4H269V347.3z M331.5,348.3h-47v-75.4c0-3.9-3.1-7-7-7h-43.2
		c-3.9,0-7,3.1-7,7v75.4h-47v-127l75.6-51.7l75.6,51.7V348.3L331.5,348.3z M336.5,192.5l-17-11.7V164h17V192.5z"/>
</g>
</svg>
