<?xml version="1.0" encoding="utf-8"?>
<!-- Generator: Adobe Illustrator 21.1.0, SVG Export Plug-In . SVG Version: 6.00 Build 0)  -->
<svg version="1.1" id="Layer_1" xmlns="http://www.w3.org/2000/svg" xmlns:xlink="http://www.w3.org/1999/xlink" x="0px" y="0px"
	 viewBox="0 0 512 512" style="enable-background:new 0 0 512 512;" xml:space="preserve">
<style type="text/css">
	.st0{fill:#7FB1C8;}
	.st1{fill:#FFFFFF;}
</style>
<path class="st0" d="M437,70.1c-51.8-31.3-113.9-25.4-171.1,7.3C213.1,38.3,151.5,24.7,94.8,50.1C0.5,92.1-10.8,211.9,46.9,324.8
	c58.2,113.4,163.3,179.9,259.6,136.9c1-0.5,1.5-1,2.4-1.5c49.4-19.6,97.3-59.6,134.9-113.4C517.1,242.2,523.5,122.9,437,70.1z"/>
<g>
	<path class="st1" d="M313.2,174.7c4.4,1.6,8,5.2,9.6,9.6c1.1,3.2,4.1,5.3,7.5,5.3c0.9,0,1.8-0.2,2.7-0.5c4.1-1.5,6.3-6,4.9-10.2
		c-3.2-9.1-10.3-16.1-19.3-19.3c-0.9-0.3-1.7-0.5-2.6-0.5c-3.4,0-6.4,2.1-7.5,5.3C306.9,168.7,309.1,173.2,313.2,174.7z"/>
	<path class="st1" d="M286.4,273.9c1.2,0.6,2.5,1,3.8,1c1.3,0,2.6-0.3,3.8-1c46.5-25.4,71.6-67.5,71.6-94.3
		c0-26.3-21.4-47.6-47.6-47.6c-11.9,0-23.1,4.5-31.7,12.1c0.4-3.4-1.5-6.7-4.7-8.2c-6-2.6-12.4-4-19.1-4
		c-26.3,0-47.6,21.4-47.6,47.6C214.8,206.4,239.9,248.5,286.4,273.9z M262.4,147.9c4.4,0,8.7,0.9,12.7,2.6c1,0.4,2.1,0.7,3.2,0.7
		c0.5,0,1,0,1.5-0.1c-2,2.6-3.7,5.4-5.1,8.4c-0.9,1.9-1,4.1-0.3,6.1s2.2,3.6,4.1,4.5c1.1,0.5,2.2,0.7,3.4,0.7c3.1,0,5.9-1.8,7.2-4.6
		c5.2-11.1,16.5-18.3,28.8-18.3c17.5,0,31.7,14.2,31.7,31.7c0,21.5-22.2,56.3-59.5,78.1c-37.3-21.8-59.5-56.6-59.5-78.1
		C230.7,162.1,244.9,147.9,262.4,147.9z"/>
	<path class="st1" d="M194.1,290.7h31.7c3.3,0,11.6,6.2,17,10.3c9.3,6.9,18,13.5,26.6,13.5h23.8c4.1,0,6.1,1.5,6.4,1.8
		c1.5,1.4,3.4,2.2,5.5,2.2c2.1,0,4.1-0.8,5.6-2.3c3.1-3.1,3.1-8.2,0-11.3c-1.1-1-6.9-6.3-17.5-6.3h-23.8c-3.3,0-11.5-6.2-17-10.3
		c-9.2-6.9-18-13.5-26.6-13.5h-31.7c-4.4,0-8,3.6-8,8S189.7,290.7,194.1,290.7z"/>
	<path class="st1" d="M145.4,358.1c5.5,0,9.9-4.5,9.9-10s-4.5-9.9-9.9-9.9c-5.5,0-9.9,4.5-9.9,9.9S139.9,358.1,145.4,358.1z"/>
	<path class="st1" d="M381.8,310.6c-2.7-4.6-6.9-7.9-12.1-9.2c-1.7-0.5-3.5-0.7-5.2-0.7c-3.4,0-6.6,0.9-9.5,2.5l-45.6,22.2
		c-6.2,3.1-13.1,3.1-28.2,3.1c-14.2,0-35.9-3.5-38.4-3.9c-0.4-0.1-0.9-0.1-1.3-0.1c-3.9,0-7.2,2.8-7.9,6.7c-0.7,4.3,2.2,8.4,6.5,9.2
		c0.2,0,24.4,4.1,41,4.1c16.6,0,25.7,0,35.2-4.8l46-22.4l0.1-0.1c0.6-0.3,1.3-0.5,1.9-0.5c1.4,0,2.7,0.8,3.4,2c0.5,0.9,0.7,2,0.4,3
		c-0.3,1-0.9,1.9-1.9,2.5l-53.7,33.4c-0.1,0.1-11,6.7-35.4,6.7c-21,0-54.4-18.1-55.8-18.9l-0.1-0.1c-1-0.5-10.1-4.8-27.4-4.8
		c-4.4,0-8,3.6-8,8s3.6,8,8,8c12.2,0,18.9,2.6,20.1,3.1c3.2,1.7,38.3,20.7,63.2,20.7c29.1,0,42.7-8.4,43.9-9.2l53.3-33.2
		c4.6-2.7,7.8-6.9,9.2-12C385.2,320.5,384.5,315.2,381.8,310.6z"/>
	<path class="st1" d="M159.3,258.9h-23.8c-4.4,0-8,3.6-8,8s3.6,8,8,8l23.8,0l0,87.2h-23.8c-4.4,0-8,3.6-8,8s3.6,8,8,8h23.8
		c8.8,0,15.9-7.1,15.9-15.9v-87.3C175.2,266,168,258.9,159.3,258.9z"/>
</g>
</svg>
