<?xml version="1.0" encoding="utf-8"?>
<!-- Generator: Adobe Illustrator 21.1.0, SVG Export Plug-In . SVG Version: 6.00 Build 0)  -->
<svg version="1.1" id="Layer_1" xmlns="http://www.w3.org/2000/svg" xmlns:xlink="http://www.w3.org/1999/xlink" x="0px" y="0px"
	 viewBox="0 0 512 512" style="enable-background:new 0 0 512 512;" xml:space="preserve">
<style type="text/css">
	.st0{fill:#7FB1C8;}
	.st1{fill:#FFFFFF;}
</style>
<path class="st0" d="M437,70.1c-51.8-31.3-113.9-25.4-171.1,7.3C213.1,38.3,151.5,24.7,94.8,50.1C0.5,92.1-10.8,211.9,46.9,324.8
	c58.2,113.4,163.3,179.9,259.6,136.9c1-0.5,1.5-1,2.4-1.5c49.4-19.6,97.3-59.6,134.9-113.4C517.1,242.2,523.5,122.9,437,70.1z"/>
<g>
	<path class="st1" d="M256,373c-64.5,0-117-52.4-117-117s52.5-117,117-117s117,52.5,117,117c0,18.6-4.2,36.3-12.5,52.7
		c-2.8,5.5-9.4,7.6-14.9,4.9c-5.5-2.8-7.6-9.4-4.9-14.9c6.7-13.4,10.1-27.6,10.1-42.7c0-52.2-42.6-94.8-94.8-94.8
		s-94.8,42.7-94.8,94.9s42.6,94.8,94.8,94.8c21.3,0,41.3-6.9,58-19.8c4.9-3.8,11.8-2.9,15.5,1.9c3.8,4.9,2.9,11.8-1.9,15.5
		C307,364.5,282.3,373,256,373z"/>
	<path class="st1" d="M299.3,216.9c-10.1,0-18.4,8.2-18.4,18.4s8.2,18.4,18.4,18.4c10.2,0,18.4-8.2,18.4-18.4
		S309.4,216.9,299.3,216.9z"/>
	<path class="st1" d="M212.7,216.9c-10.1,0-18.4,8.2-18.4,18.4s8.3,18.4,18.4,18.4c10.1,0,18.4-8.2,18.4-18.4
		S222.8,216.9,212.7,216.9z"/>
	<path class="st1" d="M256,328c-25.8,0-48.6-15.5-57.9-39.6c-2.2-5.7,0.6-12.2,6.3-14.4c5.7-2.2,12.2,0.6,14.4,6.3
		c6,15.5,20.6,25.4,37.2,25.4s31.2-9.9,37.2-25.4c2.2-5.7,8.7-8.6,14.4-6.3c5.7,2.2,8.6,8.7,6.3,14.4C304.6,312.4,281.8,328,256,328
		z"/>
</g>
</svg>
