<?xml version="1.0" encoding="utf-8"?>
<!-- Generator: Adobe Illustrator 21.1.0, SVG Export Plug-In . SVG Version: 6.00 Build 0)  -->
<svg version="1.1" id="Layer_1" xmlns="http://www.w3.org/2000/svg" xmlns:xlink="http://www.w3.org/1999/xlink" x="0px" y="0px"
	 viewBox="0 0 512 512" style="enable-background:new 0 0 512 512;" xml:space="preserve">
<style type="text/css">
	.st0{fill:#CEE8FA;}
	.st1{fill:#7FB1C8;}
	.st2{fill:#FFFFFF;}
</style>
<path class="st0" d="M156.1,175.3L92.3,224c-2.8,2.1-6.7,2.1-9.5,0L19,175.3c-5.9-4.5-2.7-14,4.7-14h127.6
	C158.8,161.3,162,170.8,156.1,175.3z"/>
<path class="st1" d="M437,70.1c-51.8-31.3-113.9-25.4-171.1,7.3C213.1,38.3,151.5,24.7,94.8,50.1C0.5,92.1-10.8,211.9,46.9,324.8
	c58.2,113.4,163.3,179.9,259.6,136.9c1-0.5,1.5-1,2.4-1.5c49.4-19.6,97.3-59.6,134.9-113.4C517.1,242.2,523.5,122.9,437,70.1z"/>
<g>
	<path class="st2" d="M437.2,252c-2.5-4.8-6.8-8.5-12.2-9.9c-17-4.4-72.2-16.6-100.9,1.7c-5.5-29.5-19.6-49-41.8-58.1
		c-0.7-0.3-1.4-0.6-2.1-0.8c-21.8-7.4-51.4,3.7-71.3,13.5l3.4-10c2.9-8.4-1.6-17.6-10-20.4l-86.9-29.7c-8.4-2.9-17.6,1.6-20.4,10
		l-21.3,62.3c-2.9,8.4,1.6,17.6,10,20.4l86.9,29.7c8.4,2.9,17.6-1.6,20.4-10l2.8-8c0.8,6.1,1,12.4,1.4,18.9
		c0.7,13.6,1.3,27.6,6.4,41.1c13.7,37.2,45.1,54.7,69.2,63c17,5.8,36.5,8.8,54.8,8.5c5.4-0.1,9.7-4.6,9.6-10
		c-0.1-5.4-4.6-9.7-10-9.6c-16.1,0.4-33.2-2.4-48-7.4c-20-6.8-46.1-21.2-57.2-51.2c-4-10.8-4.6-23.3-5.1-35.3
		c-0.7-12.5-1.3-26.6-6-40c22.9-12.6,50.1-22.1,65-17c0.4,0.1,0.7,0.2,1,0.4c16.7,6.7,27,23,30.7,48.3c0.9,5.8,4.8,10.7,10.4,12.8
		c5.5,2,11.8,1,16.2-2.9c14.5-12.6,54.1-9.8,87.1-1.3c-12.2,28.9-27,48.7-45.2,60.8c-5.9,3.9-8.6,11.1-6.7,17.9
		c0.7,2.4,1.9,4.7,3.7,6.6c0,0,0,0,0.1,0c-0.5,0.1-1,0.3-1.6,0.5c-3.1,1-6.5,1.8-9.9,2.7c-5.2,1.3-8.5,6.7-7,11.9s6.7,8.5,11.9,7
		c3.6-0.9,7.1-1.8,10.5-2.9c6.7-1.9,13-4.1,18.9-6.4c4.7-1.8,7.7-6.3,7.6-11.3c-0.1-4.9-3.3-9.4-8.1-11l0,0
		c-1.9-0.7-3.4-1.2-4.5-1.8c19.8-14.5,35.6-36.6,48.6-67.4C439.8,262.7,439.6,256.9,437.2,252z M183.1,183.3l-38.9,13l-22.8-34.1
		L183.1,183.3L183.1,183.3z M93.3,213.7l13.2-38.5l23.3,34.7c1.8,2.8,4.7,4.8,7.8,6c3.1,1,6.7,1,9.8,0.1l39.5-13.2l-13.2,38.5
		L93.3,213.7z"/>
	
		<ellipse transform="matrix(0.3236 -0.9462 0.9462 0.3236 -55.9034 391.2602)" class="st2" cx="245.7" cy="234.7" rx="11.1" ry="11.1"/>
</g>
</svg>
