<?xml version="1.0" encoding="utf-8"?>
<!-- Generator: Adobe Illustrator 21.1.0, SVG Export Plug-In . SVG Version: 6.00 Build 0)  -->
<svg version="1.1" id="Layer_1" xmlns="http://www.w3.org/2000/svg" xmlns:xlink="http://www.w3.org/1999/xlink" x="0px" y="0px"
	 viewBox="0 0 973.3 190.3" style="enable-background:new 0 0 973.3 190.3;" xml:space="preserve">
<style type="text/css">
	.st0{fill:#DFDFDF;}
</style>
<g>
	<path class="st0" d="M193,10.8h21.8v150.5h72.1v18.3H193V10.8z"/>
	<path class="st0" d="M445.8,93.4c0,58.1-35.3,88.9-78.4,88.9c-44.6,0-75.9-34.6-75.9-85.6c0-53.6,33.3-88.7,78.4-88.7
		C416,8,445.8,43.3,445.8,93.4z M314.8,96.1c0,36.1,19.5,68.4,53.8,68.4c34.6,0,54.1-31.8,54.1-70.1c0-33.5-17.5-68.6-53.8-68.6
		C332.8,25.8,314.8,59.1,314.8,96.1z"/>
	<path class="st0" d="M602.6,172c-9.8,3.5-29,9.3-51.8,9.3c-25.5,0-46.6-6.5-63.1-22.3c-14.5-14-23.5-36.6-23.5-62.9
		C464.4,45.8,498.9,9,555.6,9c19.5,0,34.8,4.3,42.1,7.8l-5.3,17.8c-9-4-20.3-7.3-37.3-7.3c-41.1,0-67.9,25.5-67.9,67.9
		c0,42.8,25.8,68.1,65.1,68.1c14.3,0,24-2,29.1-4.5v-50.3H547V90.9h55.6V172z"/>
	<path class="st0" d="M780.3,93.4c0,58.1-35.3,88.9-78.4,88.9c-44.6,0-75.9-34.6-75.9-85.6C626,43.1,659.3,8,704.4,8
		C750.5,8,780.3,43.3,780.3,93.4z M649.3,96.1c0,36.1,19.5,68.4,53.8,68.4c34.6,0,54.1-31.8,54.1-70.1c0-33.5-17.5-68.6-53.8-68.6
		C667.3,25.8,649.3,59.1,649.3,96.1z"/>
</g>
</svg>
