<?xml version="1.0" encoding="utf-8"?>
<!-- Generator: Adobe Illustrator 21.1.0, SVG Export Plug-In . SVG Version: 6.00 Build 0)  -->
<svg version="1.1" id="Layer_1" xmlns="http://www.w3.org/2000/svg" xmlns:xlink="http://www.w3.org/1999/xlink" x="0px" y="0px"
	 viewBox="0 0 973.3 190.3" style="enable-background:new 0 0 973.3 190.3;" xml:space="preserve">
<style type="text/css">
	.st0{fill:#7FB1C8;}
</style>
<g>
	<path class="st0" d="M135.4,128.9l0.2,0.7c-1.6,18.1-8,32.3-19.3,42.6c-11.3,10.4-26.4,15.5-45.4,15.5c-20.1,0-36.2-7.2-48.5-21.7
		c-12.3-14.5-18.4-33.2-18.4-56.3V80.5c0-22.9,6.1-41.7,18.4-56.3C34.6,9.7,50.8,2.4,70.9,2.4c19.1,0,34.3,5.1,45.5,15.2
		c11.2,10.1,17.6,24.4,19.2,42.8l-0.2,0.7h-13.9c-2-14.9-7.1-26.4-15.4-34.3c-8.3-7.9-20-11.9-35.2-11.9c-15.8,0-28.4,6.1-37.9,18.3
		S18.6,61.2,18.6,80.2v29.6c0,19.3,4.8,35,14.3,47.2c9.5,12.2,22.2,18.2,37.9,18.2c15.2,0,26.9-3.9,35.3-11.6
		c8.3-7.7,13.4-19.3,15.3-34.7H135.4z"/>
	<path class="st0" d="M250.9,135h-82.6l-18.6,50.3h-15.3L202.8,5h14l68,180.2h-15.3L250.9,135z M173.2,121.8H246l-35.9-97.5h-0.7
		L173.2,121.8z"/>
	<path class="st0" d="M299.5,103.8v81.4h-14.7V5.2h61c19.3,0,34.1,4.2,44.4,12.7c10.3,8.5,15.5,20.8,15.5,37.1
		c0,9.6-2.8,18.1-8.3,25.7c-5.5,7.5-13.3,13.1-23.4,16.5c11.1,2.8,19.2,7.8,24.1,15c4.9,7.2,7.4,16.3,7.4,27.2v17
		c0,5.6,0.7,10.6,2,15.1c1.3,4.5,3.5,8.1,6.6,10.9v3h-15.1c-3.1-3-5.2-7.1-6.4-12.5c-1.2-5.4-1.9-10.9-1.9-16.7v-16.5
		c0-11.1-3.6-19.8-10.7-26.2c-7.1-6.4-17.1-9.6-29.9-9.6H299.5z M299.5,91.2H344c16.3,0,28.1-3.3,35.6-9.8
		c7.5-6.6,11.3-15.4,11.3-26.5c0-11.9-3.7-21-11.2-27.4c-7.5-6.4-18.8-9.6-33.9-9.6h-46.3V91.2z"/>
	<path class="st0" d="M425,185.3V5h52.4c22,0,40.2,7.3,54.6,22c14.4,14.7,21.5,33.5,21.5,56.6v23.1c0,23.1-7.2,42-21.5,56.6
		c-14.4,14.6-32.6,21.9-54.6,21.9H425z M439.7,17.7v155h37.6c17.8,0,32.5-6.2,44-18.7c11.5-12.5,17.3-28.2,17.3-47.2V83.2
		c0-18.8-5.8-34.4-17.3-46.9c-11.6-12.5-26.2-18.7-43.9-18.7H439.7z"/>
	<path class="st0" d="M670.3,135h-82.6l-18.6,50.3h-15.3L622.3,5h14l68,180.2h-15.3L670.3,135z M592.7,121.8h72.8l-35.9-97.5h-0.7
		L592.7,121.8z"/>
	<path class="st0" d="M722.9,110.4v74.9h-14.7V5h62c18.9,0,33.5,4.8,43.9,14.4c10.4,9.6,15.5,22.3,15.5,38.2
		c0,16-5.2,28.8-15.5,38.4c-10.4,9.6-25,14.4-43.9,14.4H722.9z M722.9,97.7h47.3c14.9,0,26-3.8,33.5-11.3
		c7.5-7.6,11.2-17.1,11.2-28.5c0-11.6-3.7-21.1-11.1-28.8c-7.4-7.6-18.6-11.4-33.5-11.4h-47.3V97.7z"/>
	<path class="st0" d="M862.7,110.4v74.9H848V5h62c18.9,0,33.5,4.8,43.9,14.4c10.4,9.6,15.5,22.3,15.5,38.2c0,16-5.2,28.8-15.5,38.4
		c-10.4,9.6-25,14.4-43.9,14.4H862.7z M862.7,97.7H910c14.9,0,26-3.8,33.5-11.3c7.5-7.6,11.2-17.1,11.2-28.5
		c0-11.6-3.7-21.1-11.1-28.8c-7.4-7.6-18.6-11.4-33.5-11.4h-47.3V97.7z"/>
</g>
</svg>
