<?xml version="1.0" encoding="utf-8"?>
<!-- Generator: Adobe Illustrator 21.1.0, SVG Export Plug-In . SVG Version: 6.00 Build 0)  -->
<svg version="1.1" id="Layer_1" xmlns="http://www.w3.org/2000/svg" xmlns:xlink="http://www.w3.org/1999/xlink" x="0px" y="0px"
	 viewBox="0 0 973.3 190.3" style="enable-background:new 0 0 973.3 190.3;" xml:space="preserve">
<style type="text/css">
	.st0{fill:#BCBCBC;}
</style>
<g>
	<path class="st0" d="M13.4,17.5h15.5v107.2h51.4v13H13.4V17.5z"/>
	<path class="st0" d="M172.6,93.8c0,31.9-22.1,45.8-43,45.8c-23.4,0-41.4-17.1-41.4-44.4c0-28.9,18.9-45.8,42.8-45.8
		C155.8,49.4,172.6,67.4,172.6,93.8z M104.1,94.7c0,18.9,10.9,33.2,26.2,33.2c15,0,26.2-14.1,26.2-33.5c0-14.6-7.3-33.2-25.9-33.2
		S104.1,78.3,104.1,94.7z"/>
	<path class="st0" d="M192.4,78.3c0-10.2-0.2-18.9-0.7-26.9h13.7l0.5,16.9h0.7c3.9-11.6,13.4-18.9,23.9-18.9c1.8,0,3,0.2,4.5,0.5
		v14.8c-1.6-0.4-3.2-0.5-5.3-0.5c-11.1,0-18.9,8.4-21,20.1c-0.4,2.1-0.7,4.6-0.7,7.3v46h-15.5V78.3z"/>
	<path class="st0" d="M257.6,97.4c0.4,21.2,13.9,30,29.6,30c11.2,0,18-2,23.9-4.5l2.7,11.2c-5.5,2.5-15,5.3-28.7,5.3
		c-26.6,0-42.4-17.5-42.4-43.5c0-26,15.3-46.5,40.5-46.5c28.2,0,35.7,24.8,35.7,40.7c0,3.2-0.4,5.7-0.5,7.3H257.6z M303.6,86.1
		c0.2-10-4.1-25.5-21.8-25.5c-15.9,0-22.8,14.6-24.1,25.5H303.6z"/>
	<path class="st0" d="M338.2,74.7c0-8.9-0.2-16.2-0.7-23.4h13.7l0.7,13.9h0.5c4.8-8.2,12.8-15.9,27.1-15.9
		c11.8,0,20.7,7.1,24.4,17.3h0.4c2.7-4.8,6.1-8.6,9.6-11.2c5.2-3.9,10.9-6.1,19.1-6.1c11.4,0,28.3,7.5,28.3,37.4v50.8h-15.3V88.8
		c0-16.6-6.1-26.6-18.7-26.6c-8.9,0-15.9,6.6-18.5,14.3c-0.7,2.1-1.2,5-1.2,7.8v53.3h-15.3V86c0-13.7-6.1-23.7-18-23.7
		c-9.8,0-16.9,7.8-19.4,15.7c-0.9,2.3-1.2,5-1.2,7.7v52.1h-15.3V74.7z"/>
	<path class="st0" d="M542.2,27.1c0.2,5.3-3.7,9.6-10,9.6c-5.5,0-9.4-4.3-9.4-9.6c0-5.5,4.1-9.8,9.8-9.8
		C538.4,17.3,542.2,21.6,542.2,27.1z M524.7,137.7V51.4h15.7v86.3H524.7z"/>
	<path class="st0" d="M566.4,79.5c0-11.1-0.4-20-0.7-28.2h14.1l0.7,14.8h0.4c6.4-10.5,16.6-16.8,30.7-16.8
		c20.9,0,36.6,17.7,36.6,43.9c0,31-18.9,46.4-39.2,46.4c-11.4,0-21.4-5-26.6-13.6H582V173h-15.5V79.5z M582,102.5
		c0,2.3,0.4,4.5,0.7,6.4c2.9,10.9,12.3,18.4,23.5,18.4c16.6,0,26.2-13.5,26.2-33.3c0-17.3-9.1-32.1-25.7-32.1
		c-10.7,0-20.7,7.7-23.7,19.4c-0.5,2-1.1,4.3-1.1,6.4V102.5z"/>
	<path class="st0" d="M665.8,121.6c4.6,3,12.8,6.2,20.7,6.2c11.4,0,16.8-5.7,16.8-12.8c0-7.5-4.5-11.6-16-15.9
		c-15.5-5.5-22.8-14.1-22.8-24.4c0-13.9,11.2-25.3,29.8-25.3c8.7,0,16.4,2.5,21.2,5.3l-3.9,11.4c-3.4-2.1-9.6-5-17.7-5
		c-9.3,0-14.4,5.3-14.4,11.8c0,7.1,5.2,10.3,16.4,14.6c15,5.7,22.6,13.2,22.6,26c0,15.2-11.8,25.9-32.3,25.9
		c-9.4,0-18.2-2.3-24.2-5.9L665.8,121.6z"/>
	<path class="st0" d="M810.7,114.1c0,8.9,0.2,16.8,0.7,23.5h-13.9l-0.9-14.1h-0.4c-4.1,7-13.2,16-28.5,16
		c-13.6,0-29.8-7.5-29.8-37.8V51.4h15.7v47.8c0,16.4,5,27.5,19.3,27.5c10.5,0,17.8-7.3,20.7-14.3c0.9-2.3,1.4-5.2,1.4-8v-53h15.7
		V114.1z"/>
	<path class="st0" d="M836.7,74.7c0-8.9-0.2-16.2-0.7-23.4h13.7l0.7,13.9h0.5c4.8-8.2,12.8-15.9,27.1-15.9
		c11.8,0,20.7,7.1,24.4,17.3h0.4c2.7-4.8,6.1-8.6,9.6-11.2c5.2-3.9,10.9-6.1,19.1-6.1c11.4,0,28.3,7.5,28.3,37.4v50.8h-15.3V88.8
		c0-16.6-6.1-26.6-18.7-26.6c-8.9,0-15.9,6.6-18.5,14.3c-0.7,2.1-1.2,5-1.2,7.8v53.3h-15.3V86c0-13.7-6.1-23.7-18-23.7
		c-9.8,0-16.9,7.8-19.4,15.7c-0.9,2.3-1.2,5-1.2,7.7v52.1h-15.3V74.7z"/>
</g>
</svg>
