<?xml version="1.0" encoding="utf-8"?>
<!-- Generator: Adobe Illustrator 21.1.0, SVG Export Plug-In . SVG Version: 6.00 Build 0)  -->
<svg version="1.1" id="Capa_1" xmlns="http://www.w3.org/2000/svg" xmlns:xlink="http://www.w3.org/1999/xlink" x="0px" y="0px"
	 viewBox="0 0 66.9 29.6" style="enable-background:new 0 0 66.9 29.6;" xml:space="preserve">
<style type="text/css">
	.st0{fill:#616161;}
</style>
<g>
	<path class="st0" d="M61.1,0.3H28.8c-2.7,0-4.8,2.2-4.8,4.8v19.4c0,2.7,2.2,4.8,4.8,4.8l32.3,0c2.7,0,4.8-2.2,4.8-4.8V5.1
		C65.9,2.4,63.8,0.3,61.1,0.3z M29.4,3.5l31,0L46.1,17.8c-0.6,0.6-1.7,0.6-2.3,0L29.4,3.5L29.4,3.5z M27.2,23.8l0-18l9,9L27.2,23.8z
		 M29.4,26.1l9-9l3,3c1.9,1.9,5,1.9,6.9,0l3-3l9,9H29.4z M62.7,23.8l-9-9l9-9V23.8z"/>
	<path class="st0" d="M5.1,13.2l13.9,0c0.9,0,1.6-0.7,1.6-1.6c0-0.9-0.7-1.6-1.6-1.6L5.1,10c-0.9,0-1.6,0.7-1.6,1.6
		C3.5,12.5,4.3,13.2,5.1,13.2z"/>
	<path class="st0" d="M11.6,6.7H19c0.9,0,1.6-0.7,1.6-1.6c0-0.9-0.7-1.6-1.6-1.6l-7.4,0c-0.9,0-1.6,0.7-1.6,1.6
		C10,6,10.7,6.7,11.6,6.7z"/>
	<path class="st0" d="M19,16.4H5.1c-0.9,0-1.6,0.7-1.6,1.6c0,0.9,0.7,1.6,1.6,1.6H19c0.9,0,1.6-0.7,1.6-1.6
		C20.7,17.1,19.9,16.4,19,16.4z"/>
	<path class="st0" d="M19,22.9h-7.4c-0.9,0-1.6,0.7-1.6,1.6c0,0.9,0.7,1.6,1.6,1.6H19c0.9,0,1.6-0.7,1.6-1.6
		C20.7,23.6,19.9,22.9,19,22.9z"/>
</g>
</svg>
