<?xml version="1.0" encoding="utf-8"?>
<!-- Generator: Adobe Illustrator 21.1.0, SVG Export Plug-In . SVG Version: 6.00 Build 0)  -->
<svg version="1.1" id="Layer_1" xmlns="http://www.w3.org/2000/svg" xmlns:xlink="http://www.w3.org/1999/xlink" x="0px" y="0px"
	 viewBox="0 0 377.3 267.3" style="enable-background:new 0 0 377.3 267.3;" xml:space="preserve">
<style type="text/css">
	.st0{fill:#DCDEE2;}
	.st1{fill:#B7B9C0;}
</style>
<g>
	<path class="st0" d="M370.2,10.5c0,0-0.1,0.1-0.1,0.1c0,0,0,0,0,0L212.2,144.5c-12.7,12.7-33.6,12.7-46.3,0L7.9,10.6
		C4,15.1,1.6,21,1.6,27.4v214.1c0,14.2,11.6,25.8,25.8,25.8h323.3c14.2,0,25.8-11.6,25.8-25.8V27.4
		C376.4,19.3,372.1,12.8,370.2,10.5z"/>
</g>
<path class="st1" d="M227.9,132.2H150L7.9,258.3c4.7,5.5,11.7,9,19.5,9h323.3c7.7,0,14.7-3.5,19.4-8.9L227.9,132.2z"/>
</svg>
