<?xml version="1.0" encoding="utf-8"?>
<!-- Generator: Adobe Illustrator 21.1.0, SVG Export Plug-In . SVG Version: 6.00 Build 0)  -->
<svg version="1.1" id="Layer_1" xmlns="http://www.w3.org/2000/svg" xmlns:xlink="http://www.w3.org/1999/xlink" x="0px" y="0px"
	 viewBox="0 0 377.3 267.3" style="enable-background:new 0 0 377.3 267.3;" xml:space="preserve">
<style type="text/css">
	.st0{fill:#C9C9C9;}
	.st1{fill:#656565;}
</style>
<path class="st0" d="M364,267H14c-6.6,0-12-5.4-12-12V15C2,8.4,7.4,3,14,3h350c6.6,0,12,5.4,12,12v240C376,261.6,370.6,267,364,267z
	"/>
<g>
	<path class="st1" d="M112.7,168.8c-3.6,1.8-10.7,3.6-19.8,3.6c-21.2,0-37.1-13.4-37.1-38c0-23.5,15.9-39.4,39.2-39.4
		c9.4,0,15.3,2,17.8,3.3l-2.3,7.9c-3.7-1.8-8.9-3.1-15.1-3.1c-17.6,0-29.3,11.2-29.3,31c0,18.4,10.6,30.2,28.8,30.2
		c5.9,0,11.9-1.2,15.8-3.1L112.7,168.8z"/>
	<path class="st1" d="M124.8,96.2h9.7v66.9h32.1v8.1h-41.8V96.2z"/>
	<path class="st1" d="M187,96.2v75.1h-9.7V96.2H187z"/>
	<path class="st1" d="M256.4,168.8c-3.6,1.8-10.7,3.6-19.8,3.6c-21.2,0-37.1-13.4-37.1-38c0-23.5,15.9-39.4,39.2-39.4
		c9.4,0,15.3,2,17.8,3.3l-2.3,7.9c-3.7-1.8-8.9-3.1-15.1-3.1c-17.6,0-29.3,11.2-29.3,31c0,18.4,10.6,30.2,28.8,30.2
		c5.9,0,11.9-1.2,15.8-3.1L256.4,168.8z"/>
	<path class="st1" d="M268.5,96.2h9.7v36.2h0.3c2-2.9,4-5.6,5.9-8l22.9-28.2h12L292.3,128l29.3,43.2h-11.5l-24.7-36.9l-7.1,8.2v28.6
		h-9.7V96.2z"/>
</g>
</svg>
