<?xml version="1.0" encoding="utf-8"?>
<!-- Generator: Adobe Illustrator 21.1.0, SVG Export Plug-In . SVG Version: 6.00 Build 0)  -->
<svg version="1.1" id="Layer_1" xmlns="http://www.w3.org/2000/svg" xmlns:xlink="http://www.w3.org/1999/xlink" x="0px" y="0px"
	 viewBox="0 0 377.3 267.3" style="enable-background:new 0 0 377.3 267.3;" xml:space="preserve">
<style type="text/css">
	.st0{fill:#DCDEE2;}
	.st1{fill:#B7B9C0;}
	.st2{fill:#EDEEF0;}
</style>
<g>
	<path class="st0" d="M369.8,9.5l-0.1,0.1l0,0L211.8,143.5c-12.7,12.7-33.6,12.7-46.3,0L7.5,9.6C3.6,14.1,1.2,20,1.2,26.4v214.1
		c0,14.2,11.6,25.8,25.8,25.8h323.3c14.2,0,25.8-11.6,25.8-25.8V26.4C376,18.3,371.7,11.8,369.8,9.5z"/>
</g>
<path class="st1" d="M227.6,131.2h-77.9L7.6,257.3c4.7,5.5,11.7,9,19.5,9h323.3c7.7,0,14.7-3.5,19.4-8.9L227.6,131.2z"/>
<path class="st2" d="M350.3,1H27C19.3,1,12.3,4.5,7.6,9.9l157.9,157.9c12.7,12.7,33.6,12.7,46.3,0L369.7,10C365,4.5,358,1,350.3,1z"
	/>
</svg>
