<?xml version="1.0" encoding="utf-8"?>
<!-- Generator: Adobe Illustrator 21.1.0, SVG Export Plug-In . SVG Version: 6.00 Build 0)  -->
<svg version="1.1" id="Layer_1" xmlns="http://www.w3.org/2000/svg" xmlns:xlink="http://www.w3.org/1999/xlink" x="0px" y="0px"
	 viewBox="0 0 377.3 267.3" style="enable-background:new 0 0 377.3 267.3;" xml:space="preserve">
<style type="text/css">
	.st0{fill:#DCDEE2;}
	.st1{fill:#B7B9C0;}
</style>
<g>
	<g>
		<path class="st0" d="M372,9.4c0.1,0.1,0.1,0.2,0.2,0.3C372.1,9.6,372,9.5,372,9.4z"/>
		<path class="st0" d="M372.5,10.1L188.1,186.6c0,0-183.9-176.3-183.6-176.6c-3.8,4.5-4,9.5-4,15.7v215.9
			c0,14.1,11.5,25.6,25.6,25.6h326.2c14,0,25.5-11.5,25.6-25.6V25.8C377.9,19.9,375.9,14.4,372.5,10.1z"/>
	</g>
	<g>
		<path class="st1" d="M127.8,143.9L14.5,263.4c3.9,2.4,8.4,3.7,13.3,3.7H354c3.5,0,6.8-0.7,9.9-2l-116-121.2L127.8,143.9
			L127.8,143.9z"/>
	</g>
</g>
</svg>
