<?xml version="1.0" encoding="utf-8"?>
<!-- Generator: Adobe Illustrator 21.1.0, SVG Export Plug-In . SVG Version: 6.00 Build 0)  -->
<svg version="1.1" id="Layer_1" xmlns="http://www.w3.org/2000/svg" xmlns:xlink="http://www.w3.org/1999/xlink" x="0px" y="0px"
	 viewBox="0 0 280 40" style="enable-background:new 0 0 280 40;" xml:space="preserve" width="280" height="40">
<style type="text/css">
	.st0{fill:#3B5998;}
	.st1{fill:#95D03A;}
	.st2{fill:#7D7D7D;}
	.st3{fill:#DC4E41;}
	.st4{fill:#FFBD00;}
	.st5{fill:#0656F7;}
	.st6{fill:#1BD741;}
</style>
<path class="st0" d="M0,0v40h40V0H0z M24.1,14.9c-0.1,0-0.1,0-0.2,0c-0.5,0-1,0-1.4,0c-0.7,0-1.1,0.3-1.2,1.1c0,0.6,0,2,0,2
	s1.5,0,2.2,0c0.2,0,0.3,0,0.5,0c-0.1,1-0.2,1.9-0.4,2.8h-2.4v7h-2.9v-7h-2.4V18h2.4v-0.2c0-0.6,0-1.1,0-1.7c0-0.4,0-0.7,0.1-1.1
	c0.1-0.8,0.5-1.6,1.3-2.1c0.6-0.4,1.3-0.6,2.1-0.6c0.5,0,1,0,1.5,0c0.3,0,0.5,0.1,0.8,0.1V14.9z"/>
<path class="st1" d="M240,0v40h40V0H240z M256.9,20c0,0.1,0,0.3,0,0.4l5.6,2.7c0.5-0.5,1.2-0.8,1.9-0.8c1.5,0,2.6,1.2,2.6,2.6
	c0,1.5-1.2,2.6-2.6,2.6c-1.5,0-2.6-1.2-2.6-2.6c0-0.1,0-0.3,0-0.4l-5.6-2.7c-0.5,0.5-1.2,0.8-1.9,0.8c-1.5,0-2.6-1.2-2.6-2.6
	c0-1.5,1.2-2.6,2.6-2.6c0.8,0,1.4,0.3,1.9,0.8l5.6-2.7c0-0.1,0-0.3,0-0.4c0-1.5,1.2-2.6,2.6-2.6c1.5,0,2.6,1.2,2.6,2.6
	c0,1.5-1.2,2.6-2.6,2.6c-0.8,0-1.4-0.3-1.9-0.8l-5.6,2.7C256.9,19.7,256.9,19.8,256.9,20z"/>
<path class="st2" d="M200,0v40h40V0H200z M213.6,13h14.1c0.4,0,0.8,0.1,1.1,0.3l-8.2,7.1l-8.2-7.1C212.8,13.1,213.2,13,213.6,13z
	 M211.2,24.7v-9.4c0-0.5,0.1-0.9,0.4-1.2l5.9,5.1l-5.9,6.6C211.3,25.5,211.2,25.1,211.2,24.7z M227.7,27h-14.1
	c-0.5,0-0.9-0.1-1.2-0.4l6-6.7l1.9,1.7c0.1,0.1,0.2,0.1,0.4,0.1c0.1,0,0.3,0,0.4-0.1l1.9-1.7l6,6.7C228.5,26.9,228.1,27,227.7,27z
	 M230,24.7c0,0.4-0.1,0.8-0.3,1.1l-5.9-6.6l5.9-5.1c0.2,0.4,0.4,0.8,0.4,1.2V24.7z"/>
<path class="st3" d="M40,0v40h40V0H40z M62.5,23.9c-0.8,1-1.8,1.6-3,2c-0.7,0.2-1.3,0.2-2,0.2c-1.2-0.1-2.3-0.4-3.2-1.1
	c-1.2-0.9-2-2.1-2.4-3.6c-0.1-0.5-0.2-1.1-0.1-1.6c0.1-1.3,0.5-2.5,1.3-3.5c0.9-1.1,1.9-1.7,3.3-2.1c0.3-0.1,0.7-0.1,1-0.2
	c0.2,0,0.4,0,0.6,0c1,0,2,0.3,2.9,0.8c0.6,0.3,0.9,0.7,1.1,0.8c-0.6,0.6-1.2,1.2-1.8,1.8c-0.4-0.4-0.9-0.7-1.8-0.9
	c-1.9-0.3-3.6,1-4,2.8c-0.1,0.4-0.1,0.7-0.1,1.1c0.1,1.5,1.1,2.7,2.5,3.1c0.4,0.1,0.9,0.2,1.3,0.2c0.6,0,1.2-0.2,1.8-0.6
	c0.9-0.6,1.2-1.6,1.2-1.8c-0.2,0-3.2,0-3.2,0s0-1.6,0-2.3c0,0,0-0.1,0-0.1c1.9,0,3.8,0,5.7,0C63.8,20.6,63.6,22.4,62.5,23.9z
	 M70.9,18.9v1.5v0.1h-0.1h-2.1v2.1v0.1h-0.1h-1.5h-0.1v-0.1v-2.1h-2.1H65v-0.1v-1.5v-0.1h0.1h2.1v-2.1v-0.1h0.1h1.5h0.1v0.1v2.1
	L70.9,18.9L70.9,18.9L70.9,18.9z"/>
<path class="st4" d="M176.8,17.4c-0.4-0.1-0.6-0.2-0.6-0.4c0-0.2,0.1-0.3,0.4-0.3c0.3,0,0.6,0.1,0.8,0.2l0.2-0.7
	c-0.2-0.1-0.6-0.2-1-0.2c-0.9,0-1.4,0.5-1.4,1.1c0,0.4,0.3,0.8,1,1c0.4,0.1,0.5,0.2,0.5,0.4c0,0.2-0.1,0.3-0.5,0.3
	c-0.3,0-0.7-0.1-0.9-0.3l-0.2,0.8c0.3,0.1,0.7,0.2,1.1,0.2c1,0,1.5-0.5,1.5-1.1C177.8,18,177.5,17.6,176.8,17.4z"/>
<path class="st4" d="M186,17.4c-0.4-0.1-0.6-0.2-0.6-0.4c0-0.2,0.1-0.3,0.4-0.3c0.3,0,0.6,0.1,0.8,0.2l0.2-0.7
	c-0.2-0.1-0.6-0.2-1-0.2c-0.9,0-1.4,0.5-1.4,1.1c0,0.4,0.3,0.8,1,1c0.4,0.1,0.5,0.2,0.5,0.4c0,0.2-0.1,0.3-0.5,0.3
	c-0.3,0-0.7-0.1-0.9-0.3l-0.2,0.8c0.3,0.1,0.7,0.2,1.1,0.2c1,0,1.5-0.5,1.5-1.1C187,18,186.7,17.6,186,17.4z"/>
<path class="st4" d="M182.5,16c-0.3,0-0.5,0.1-0.7,0.2c-0.2,0.1-0.3,0.2-0.4,0.4h0c-0.1-0.4-0.5-0.6-1-0.6c-0.6,0-0.9,0.3-1.1,0.5
	h0l0-0.5v0h-0.9c0,0.3,0,0.7,0,1.1v2.4h1.1v-2c0-0.1,0-0.2,0-0.3c0.1-0.2,0.2-0.4,0.5-0.4c0.3,0,0.5,0.3,0.5,0.7v1.9h1.1v-2
	c0-0.1,0-0.2,0-0.3c0.1-0.2,0.2-0.4,0.5-0.4c0.3,0,0.5,0.3,0.5,0.8v1.9h1.1v-2C183.7,16.4,183.2,16,182.5,16z"/>
<path class="st4" d="M160,0v40h40V0H160z M190,22.5c0,1-0.8,1.9-1.8,1.9h-2v4.6l-5.6-4.6H174c-1,0-1.8-0.8-1.8-1.9V13
	c0-1,0.8-1.9,1.8-1.9h14.1c1,0,1.8,0.8,1.8,1.9V22.5z"/>
<polygon class="st5" points="139.9,17.3 135.3,22.1 139.5,19.8 141.6,22.1 146.1,17.3 142,19.5 	"/>
<path class="st5" d="M120,0v40h40V0H120z M140.7,26.7c-0.8,0-1.6-0.1-2.4-0.3l-2.8,1.5V25c-1.8-1.4-3-3.6-3-6c0-4.2,3.7-7,8.3-7
	s8.3,2.8,8.3,7C149,23.3,145.3,26.7,140.7,26.7z"/>
<path class="st6" d="M101.9,13.3c-3.6,0-6.5,2.9-6.5,6.5c0,1.3,0.4,2.5,1,3.5l0.2,0.3l-0.6,2.3l2.3-0.6l0.2,0.1c1,0.6,2.2,1,3.4,1
	c3.6,0,6.5-2.9,6.5-6.5S105.5,13.3,101.9,13.3z M105.8,22.2c-0.1,0.4-0.3,0.8-0.7,1c-0.5,0.3-1.1,0.4-1.8,0.2
	c-2.4-0.7-3.7-2.3-4.5-3.2c-0.7-1-1-2-0.8-2.8c0.1-0.5,0.5-1,0.8-1.2c0.1-0.1,0.3-0.2,0.4-0.1l0.5,0c0.1,0,0.2,0.1,0.2,0.2l0.7,1.7
	c0,0.1,0,0.2,0,0.3l-0.6,0.7c-0.1,0.1-0.1,0.1,0,0.2c0.9,1.6,2.4,2.3,2.9,2.4c0.1,0,0.2,0,0.2-0.1l0.7-0.9c0.1-0.1,0.2-0.1,0.3-0.1
	l1.7,0.8c0.1,0.1,0.2,0.2,0.1,0.3L105.8,22.2z"/>
<path class="st6" d="M80,0v40h40V0H80z M101.9,27.7c-1.3,0-2.7-0.3-3.8-1l-4,1l1.1-3.9c-0.7-1.2-1.1-2.6-1.1-4
	c0-4.3,3.5-7.8,7.8-7.8s7.8,3.5,7.8,7.8S106.2,27.7,101.9,27.7z"/>
</svg>
