<?xml version="1.0" encoding="utf-8"?>
<!-- Generator: Adobe Illustrator 21.1.0, SVG Export Plug-In . SVG Version: 6.00 Build 0)  -->
<svg version="1.1" id="Layer_1" xmlns="http://www.w3.org/2000/svg" xmlns:xlink="http://www.w3.org/1999/xlink" x="0px" y="0px"
	 viewBox="0 0 146 72" style="enable-background:new 0 0 146 72;" xml:space="preserve">
<style type="text/css">
	.st0{fill:#D3D3D3;}
</style>
<g>
	<path class="st0" d="M4.2,26.1h2.3v15.6h7.5v1.9H4.2V26.1z"/>
	<path class="st0" d="M27.4,37.2c0,4.6-3.2,6.7-6.3,6.7c-3.4,0-6-2.5-6-6.5c0-4.2,2.7-6.7,6.2-6.7C24.9,30.8,27.4,33.4,27.4,37.2z
		 M17.4,37.4c0,2.7,1.6,4.8,3.8,4.8c2.2,0,3.8-2,3.8-4.9c0-2.1-1.1-4.8-3.8-4.8C18.6,32.5,17.4,35,17.4,37.4z"/>
	<path class="st0" d="M30.3,35c0-1.5,0-2.8-0.1-3.9h2l0.1,2.5h0.1c0.6-1.7,1.9-2.7,3.5-2.7c0.3,0,0.4,0,0.6,0.1V33
		c-0.2-0.1-0.5-0.1-0.8-0.1c-1.6,0-2.7,1.2-3.1,2.9c-0.1,0.3-0.1,0.7-0.1,1.1v6.7h-2.3V35z"/>
	<path class="st0" d="M39.7,37.8c0.1,3.1,2,4.4,4.3,4.4c1.6,0,2.6-0.3,3.5-0.6l0.4,1.6c-0.8,0.4-2.2,0.8-4.2,0.8
		c-3.9,0-6.2-2.5-6.2-6.3c0-3.8,2.2-6.8,5.9-6.8c4.1,0,5.2,3.6,5.2,5.9c0,0.5-0.1,0.8-0.1,1.1H39.7z M46.4,36.1
		c0-1.5-0.6-3.7-3.2-3.7c-2.3,0-3.3,2.1-3.5,3.7H46.4z"/>
	<path class="st0" d="M51.5,34.5c0-1.3,0-2.4-0.1-3.4h2l0.1,2h0.1c0.7-1.2,1.9-2.3,3.9-2.3c1.7,0,3,1,3.6,2.5h0.1
		c0.4-0.7,0.9-1.2,1.4-1.6c0.8-0.6,1.6-0.9,2.8-0.9c1.7,0,4.1,1.1,4.1,5.4v7.4h-2.2v-7.1c0-2.4-0.9-3.9-2.7-3.9
		c-1.3,0-2.3,1-2.7,2.1c-0.1,0.3-0.2,0.7-0.2,1.1v7.8h-2.2v-7.5c0-2-0.9-3.5-2.6-3.5c-1.4,0-2.5,1.1-2.8,2.3
		c-0.1,0.3-0.2,0.7-0.2,1.1v7.6h-2.2V34.5z"/>
	<path class="st0" d="M81.2,27.5c0,0.8-0.5,1.4-1.5,1.4c-0.8,0-1.4-0.6-1.4-1.4c0-0.8,0.6-1.4,1.4-1.4
		C80.6,26.1,81.2,26.7,81.2,27.5z M78.6,43.6V31.1h2.3v12.6H78.6z"/>
	<path class="st0" d="M84.7,35.2c0-1.6-0.1-2.9-0.1-4.1h2l0.1,2.2h0.1c0.9-1.5,2.4-2.4,4.5-2.4c3,0,5.3,2.6,5.3,6.4
		c0,4.5-2.7,6.7-5.7,6.7c-1.7,0-3.1-0.7-3.9-2h-0.1v6.8h-2.3V35.2z M86.9,38.5c0,0.3,0.1,0.6,0.1,0.9c0.4,1.6,1.8,2.7,3.4,2.7
		c2.4,0,3.8-2,3.8-4.9c0-2.5-1.3-4.7-3.7-4.7c-1.6,0-3,1.1-3.4,2.8c-0.1,0.3-0.2,0.6-0.2,0.9V38.5z"/>
	<path class="st0" d="M99.1,41.3c0.7,0.4,1.9,0.9,3,0.9c1.7,0,2.4-0.8,2.4-1.9c0-1.1-0.6-1.7-2.3-2.3c-2.3-0.8-3.3-2-3.3-3.6
		c0-2,1.6-3.7,4.3-3.7c1.3,0,2.4,0.4,3.1,0.8l-0.6,1.7c-0.5-0.3-1.4-0.7-2.6-0.7c-1.3,0-2.1,0.8-2.1,1.7c0,1,0.8,1.5,2.4,2.1
		c2.2,0.8,3.3,1.9,3.3,3.8c0,2.2-1.7,3.8-4.7,3.8c-1.4,0-2.6-0.3-3.5-0.9L99.1,41.3z"/>
	<path class="st0" d="M120.2,40.2c0,1.3,0,2.4,0.1,3.4h-2l-0.1-2h-0.1c-0.6,1-1.9,2.3-4.2,2.3c-2,0-4.3-1.1-4.3-5.5v-7.3h2.3v7
		c0,2.4,0.7,4,2.8,4c1.5,0,2.6-1.1,3-2.1c0.1-0.3,0.2-0.8,0.2-1.2v-7.7h2.3V40.2z"/>
	<path class="st0" d="M124,34.5c0-1.3,0-2.4-0.1-3.4h2l0.1,2h0.1c0.7-1.2,1.9-2.3,3.9-2.3c1.7,0,3,1,3.6,2.5h0.1
		c0.4-0.7,0.9-1.2,1.4-1.6c0.8-0.6,1.6-0.9,2.8-0.9c1.7,0,4.1,1.1,4.1,5.4v7.4h-2.2v-7.1c0-2.4-0.9-3.9-2.7-3.9
		c-1.3,0-2.3,1-2.7,2.1c-0.1,0.3-0.2,0.7-0.2,1.1v7.8h-2.2v-7.5c0-2-0.9-3.5-2.6-3.5c-1.4,0-2.5,1.1-2.8,2.3
		c-0.1,0.3-0.2,0.7-0.2,1.1v7.6H124V34.5z"/>
</g>
</svg>
