<?xml version="1.0" encoding="utf-8"?>
<!-- Generator: Adobe Illustrator 21.1.0, SVG Export Plug-In . SVG Version: 6.00 Build 0)  -->
<svg version="1.1" id="Layer_1" xmlns="http://www.w3.org/2000/svg" xmlns:xlink="http://www.w3.org/1999/xlink" x="0px" y="0px"
	 viewBox="0 0 512 512" style="enable-background:new 0 0 512 512;" xml:space="preserve">
<style type="text/css">
	.st0{fill:#CEE8FA;}
	.st1{fill:#7FB1C8;}
</style>
<polygon class="st0" points="234.7,171.1 292.3,364.8 394,364.9 319.8,115.4 "/>
<g>
	<path class="st1" d="M323.5,84.2c-1.9-6.5-8.8-10.2-15.2-8.3c-6.5,1.9-10.2,8.8-8.3,15.2l5.6,18.8L77.8,259.2
		c-20.9,13.7-30.6,40-23.4,64l3.8,12.8c7.1,24,29.6,40.7,54.6,40.8l4.4,0c5.9,34.3,35.8,59.8,72.3,59.8c21.2,0,41.4-9.2,55.4-25.2
		c4.4-5.1,3.9-12.9-1.2-17.3c-5.1-4.4-12.9-3.9-17.3,1.2c-9.3,10.7-22.7,16.8-36.9,16.8c-22.8,0-41.7-14.8-47.2-35.2l242.8,0.4
		l5.6,18.8c1.6,5.3,6.5,8.8,11.7,8.8c1.2,0,2.3-0.2,3.5-0.5c6.5-1.9,10.2-8.8,8.3-15.2L323.5,84.2z M312.7,134.6l0.7,2.4l64.1,215.6
		l-0.2,0l-75.9-0.1l-52.4-176.2L312.7,134.6z M81.7,329l-3.8-12.8c-4.1-13.7,1.4-28.7,13.4-36.5l136.5-89.3l48.2,162.2l-163.1-0.2
		C98.5,352.2,85.7,342.7,81.7,329z"/>
	<path class="st1" d="M383.4,165.6c1.7,0.8,3.5,1.2,5.2,1.2c4.6,0,9-2.6,11.1-7l13.4-28.4c2.9-6.1,0.2-13.4-5.9-16.3
		c-6.1-2.9-13.4-0.3-16.3,5.9l-13.4,28.4C374.7,155.4,377.3,162.7,383.4,165.6z"/>
	<path class="st1" d="M404.8,222c1.3,5.6,6.4,9.4,11.9,9.4c0.9,0,1.9-0.1,2.9-0.3l31-7.4c6.6-1.6,10.6-8.2,9.1-14.8
		c-1.6-6.6-8.2-10.6-14.8-9.1l-31,7.4C407.3,208.8,403.2,215.4,404.8,222z"/>
	<path class="st1" d="M453.3,299.1l-24.8-19.3c-5.3-4.2-13-3.2-17.2,2.2c-4.2,5.3-3.2,13,2.2,17.2l24.8,19.3
		c2.2,1.7,4.9,2.6,7.5,2.6c3.7,0,7.3-1.6,9.7-4.7C459.6,311,458.6,303.3,453.3,299.1z"/>
</g>
</svg>
